<?xml version="1.0" encoding="UTF-8"?>
<svg id="Layer_1" data-name="Layer 1" xmlns="http://www.w3.org/2000/svg" xmlns:xlink="http://www.w3.org/1999/xlink" viewBox="0 0 222.32 164.37">
  <defs>
    <style>
      .cls-1 {
        fill: url(#linear-gradient);
      }

      .cls-1, .cls-2, .cls-3 {
        stroke-width: 0px;
      }

      .cls-3 {
        fill: url(#linear-gradient-2);
      }
    </style>
    <linearGradient id="linear-gradient" x1="61.77" y1="59.82" x2="160.56" y2="59.82" gradientUnits="userSpaceOnUse">
      <stop offset="0" stop-color="#21E8FE"/>
      <stop offset="1" stop-color="#21e8fe"/>
    </linearGradient>
    <linearGradient id="linear-gradient-2" x1="61.82" y1="54.3" x2="126.42" y2="54.3" xlink:href="#linear-gradient"/>
  </defs>
  <g>
    <path class="cls-2" d="m0,164.32v-38.06h15.99c5.17,0,8.13,3.59,8.13,7.39v3.75c0,3.06-1.85,5.7-4.54,6.7,3.06.74,5.38,3.54,5.38,6.86v6.28c0,3.91-3.17,7.07-7.07,7.07H0Zm3.8-21.91h11.14c3.54,0,5.38-1.69,5.38-5.01v-2.64c0-3.33-1.85-4.96-5.38-4.96H3.8v12.62Zm0,18.32h11.82c3.54,0,5.59-1.43,5.59-4.96v-4.59c0-3.54-2.06-5.17-5.59-5.17H3.8v14.73Z"/>
    <path class="cls-2" d="m30.67,164.37v-38.11h3.8v38.11h-3.8Z"/>
    <path class="cls-2" d="m46.92,164.32c-3.91,0-7.07-3.17-7.07-7.07v-13.83c0-3.91,3.17-7.13,7.07-7.13h9.4c3.91,0,7.07,3.22,7.07,7.13v13.83c0,3.91-3.17,7.07-7.07,7.07h-9.4Zm1.69-24.49c-3.27,0-4.96,2.22-4.96,4.8v11.35c0,2.59,1.69,4.75,4.96,4.75h5.96c3.27,0,5.01-2.16,5.01-4.75v-11.35c0-2.59-1.79-4.8-5.01-4.8h-5.96Z"/>
    <path class="cls-2" d="m74.05,164.32c-3.91,0-7.07-3.17-7.07-7.07v-13.83c0-3.91,3.17-7.13,7.07-7.13h9.45c3.54,0,6.65,2.59,6.97,5.96.05,1.69.11,2.16.11,2.59h-3.85c0-3.22-1.79-5.02-5.07-5.02h-5.91c-3.22,0-4.96,1.9-4.96,5.02v11.14c0,2.59,1.74,4.75,4.96,4.75h5.91c3.33,0,5.07-1.79,5.07-4.96h3.85c0,.58-.11,2.59-.21,3.11-.53,3.11-3.54,5.44-6.86,5.44h-9.45Z"/>
    <path class="cls-2" d="m95.96,126.26h3.8v21.22l12.19-11.19h5.23l-11.56,10.61,13.25,17.42h-4.75l-11.3-14.83-3.06,2.8v11.82h-3.8v-37.85Z"/>
    <path class="cls-2" d="m162.2,164.32h-18.58c-3.91,0-7.07-3.17-7.07-7.07v-30.98h6.12v25.92c0,3.54.63,6.39,4.17,6.39h15.36v5.75Z"/>
    <path class="cls-2" d="m190.81,164.32h-6.12v-1.9c-1.27,1.16-2.96,1.9-4.86,1.9h-7.97c-3.9,0-7.07-3.17-7.07-7.07v-4.75c0-3.91,3.17-7.07,7.07-7.07h7.97c1.9,0,3.59.48,4.86,1.48v-.95c0-3.54-.79-4.43-4.33-4.43h-12.35v-5.97h15.73c3.91,0,7.07,3.22,7.07,7.13v21.64Zm-17.21-13.14c-1.53,0-2.69,1.21-2.69,2.69v2.01c0,1.48,1.16,2.69,2.69,2.69h8.08c1.48,0,2.69-1.21,2.69-2.69v-2.01c0-1.48-1.21-2.69-2.69-2.69h-8.08Z"/>
    <path class="cls-2" d="m207.33,164.32c-1.9,0-3.59-.74-4.86-1.9v1.9h-6.12v-38.06h6.12v11.19c1.27-1.16,2.96-1.9,4.86-1.9h7.92c3.91,0,7.07,3.22,7.07,7.13v14.57c0,3.91-3.17,7.07-7.07,7.07h-7.92Zm-.95-23.01c-2.11,0-3.85,1.74-3.85,3.85v9.55c0,2.11,1.74,3.85,3.85,3.85h5.96c2.11,0,3.85-1.74,3.85-3.85v-9.55c0-2.11-1.74-3.85-3.85-3.85h-5.96Z"/>
  </g>
  <g>
    <path class="cls-1" d="m160.56,66.5v24.57l-49.41,28.56-49.38-28.56v-17.51l1.17.62c3.77,2,7.37,4.1,10.85,6.13,1.75,1.02,3.57,2.08,5.35,3.1,3.94,2.24,7.92,4.56,11.78,6.79,1.5.87,3,1.74,4.51,2.61,3.72,2.15,7.45,4.31,11.22,6.5l4.53,2.62,34.03-19.67v-7.08l-27.54-15.98,27.57-15.99v-5.82l-34.05-19.68-5.09,2.92v14.24l15.43,8.9-15.27,8.84-15.47-8.87V11.78L111.15,0l49.37,28.53v23.52l-12.27,7.13c1.88,1.18,3.76,2.25,5.59,3.3,2.2,1.25,4.29,2.44,6.36,3.8l.36.23Z"/>
    <path class="cls-3" d="m126.42,79.89l-15.24,8.85-49.37-28.5v-31.73l15.03-8.66.07,1.29c.13,2.56.12,4.93.1,7.23,0,1.01-.01,1.97,0,2.95.02,2.38.01,4.8,0,7.14,0,1.03,0,2.06,0,3.09v9.73l49.41,28.6Z"/>
  </g>
</svg>