<?xml version="1.0" encoding="UTF-8"?>
<svg id="Layer_1" data-name="Layer 1" xmlns="http://www.w3.org/2000/svg" xmlns:xlink="http://www.w3.org/1999/xlink" viewBox="0 0 290.53 58.66">
  <defs>
    <style>
      .cls-1 {
        fill: url(#linear-gradient);
      }

      .cls-1, .cls-2, .cls-3 {
        stroke-width: 0px;
      }

      .cls-3 {
        fill: url(#linear-gradient-2);
      }
    </style>
    <linearGradient id="linear-gradient" x1="0" y1="29.33" x2="48.44" y2="29.33" gradientUnits="userSpaceOnUse">
      <stop offset="0" stop-color="#21E8FE"/>
      <stop offset="1" stop-color="#21e8fe"/>
    </linearGradient>
    <linearGradient id="linear-gradient-2" x1=".03" y1="26.62" x2="31.7" y2="26.62" xlink:href="#linear-gradient"/>
  </defs>
  <g>
    <path class="cls-2" d="m68.21,48.33V10.27h15.99c5.17,0,8.13,3.59,8.13,7.39v3.75c0,3.06-1.85,5.7-4.54,6.7,3.06.74,5.38,3.54,5.38,6.86v6.28c0,3.91-3.17,7.07-7.07,7.07h-17.89Zm3.8-21.91h11.14c3.54,0,5.38-1.69,5.38-5.01v-2.64c0-3.33-1.85-4.96-5.38-4.96h-11.14v12.62Zm0,18.32h11.82c3.54,0,5.59-1.43,5.59-4.96v-4.59c0-3.54-2.06-5.17-5.59-5.17h-11.82v14.73Z"/>
    <path class="cls-2" d="m98.88,48.38V10.27h3.8v38.11h-3.8Z"/>
    <path class="cls-2" d="m115.14,48.33c-3.91,0-7.07-3.17-7.07-7.07v-13.83c0-3.91,3.17-7.13,7.07-7.13h9.4c3.91,0,7.07,3.22,7.07,7.13v13.83c0,3.91-3.17,7.07-7.07,7.07h-9.4Zm1.69-24.49c-3.27,0-4.96,2.22-4.96,4.8v11.35c0,2.59,1.69,4.75,4.96,4.75h5.96c3.27,0,5.01-2.16,5.01-4.75v-11.35c0-2.59-1.79-4.8-5.01-4.8h-5.96Z"/>
    <path class="cls-2" d="m142.27,48.33c-3.91,0-7.07-3.17-7.07-7.07v-13.83c0-3.91,3.17-7.13,7.07-7.13h9.45c3.54,0,6.65,2.59,6.97,5.96.05,1.69.11,2.16.11,2.59h-3.85c0-3.22-1.79-5.02-5.07-5.02h-5.91c-3.22,0-4.96,1.9-4.96,5.02v11.14c0,2.59,1.74,4.75,4.96,4.75h5.91c3.33,0,5.07-1.79,5.07-4.96h3.85c0,.58-.11,2.59-.21,3.11-.53,3.11-3.54,5.44-6.86,5.44h-9.45Z"/>
    <path class="cls-2" d="m164.17,10.27h3.8v21.22l12.19-11.19h5.23l-11.56,10.61,13.25,17.42h-4.75l-11.3-14.83-3.06,2.8v11.82h-3.8V10.27Z"/>
    <path class="cls-2" d="m230.41,48.33h-18.58c-3.91,0-7.07-3.17-7.07-7.07V10.27h6.12v25.92c0,3.54.63,6.39,4.17,6.39h15.36v5.75Z"/>
    <path class="cls-2" d="m259.02,48.33h-6.12v-1.9c-1.27,1.16-2.96,1.9-4.86,1.9h-7.97c-3.9,0-7.07-3.17-7.07-7.07v-4.75c0-3.91,3.17-7.07,7.07-7.07h7.97c1.9,0,3.59.48,4.86,1.48v-.95c0-3.54-.79-4.43-4.33-4.43h-12.35v-5.97h15.73c3.91,0,7.07,3.22,7.07,7.13v21.64Zm-17.21-13.14c-1.53,0-2.69,1.21-2.69,2.69v2.01c0,1.48,1.16,2.69,2.69,2.69h8.08c1.48,0,2.69-1.21,2.69-2.69v-2.01c0-1.48-1.21-2.69-2.69-2.69h-8.08Z"/>
    <path class="cls-2" d="m275.54,48.33c-1.9,0-3.59-.74-4.86-1.9v1.9h-6.12V10.27h6.12v11.19c1.27-1.16,2.96-1.9,4.86-1.9h7.92c3.91,0,7.07,3.22,7.07,7.13v14.57c0,3.91-3.17,7.07-7.07,7.07h-7.92Zm-.95-23.01c-2.11,0-3.85,1.74-3.85,3.85v9.55c0,2.11,1.74,3.85,3.85,3.85h5.96c2.11,0,3.85-1.74,3.85-3.85v-9.55c0-2.11-1.74-3.85-3.85-3.85h-5.96Z"/>
  </g>
  <g>
    <path class="cls-1" d="m48.44,32.61v12.04l-24.22,14L0,44.65v-8.59l.57.3c1.85.98,3.61,2.01,5.32,3.01.86.5,1.75,1.02,2.62,1.52,1.93,1.1,3.89,2.23,5.78,3.33.74.43,1.47.85,2.21,1.28,1.83,1.06,3.65,2.11,5.5,3.18l2.22,1.28,16.68-9.64v-3.47l-13.5-7.84,13.52-7.84v-2.85l-16.7-9.65-2.5,1.43v6.98l7.56,4.36-7.49,4.33-7.58-4.35V5.77L24.21,0l24.2,13.99v11.53l-6.01,3.49c.92.58,1.84,1.1,2.74,1.62,1.08.62,2.1,1.2,3.12,1.86l.18.12Z"/>
    <path class="cls-3" d="m31.7,39.17l-7.47,4.34L.03,29.54v-15.56l7.37-4.25.03.63c.06,1.26.06,2.42.05,3.54,0,.5,0,.97,0,1.44,0,1.17,0,2.35,0,3.5,0,.51,0,1.01,0,1.52v4.77l24.22,14.02Z"/>
  </g>
</svg>